<?xml version="1.0" standalone="no"?>
<!DOCTYPE svg PUBLIC "-//W3C//DTD SVG 20010904//EN"
 "http://www.w3.org/TR/2001/REC-SVG-20010904/DTD/svg10.dtd">
<svg version="1.0" xmlns="http://www.w3.org/2000/svg"
 width="1280.000000pt" height="1113.000000pt" viewBox="0 0 1280.000000 1113.000000"
 preserveAspectRatio="xMidYMid meet">
<metadata>
Created by potrace 1.15, written by Peter Selinger 2001-2017
</metadata>
<g transform="translate(0.000000,1113.000000) scale(0.100000,-0.100000)"
fill="#000000" stroke="none">
<path d="M3680 11123 c-586 -33 -1197 -198 -1698 -458 -329 -172 -589 -360
-840 -608 -198 -195 -341 -376 -506 -636 -342 -540 -538 -1061 -613 -1626 -21
-165 -24 -590 -5 -750 111 -910 543 -1770 1348 -2684 886 -1006 2312 -2094
4099 -3126 94 -54 200 -115 237 -136 l67 -39 -30 -73 c-62 -148 -139 -463
-126 -514 3 -11 5 -6 6 12 4 86 87 377 146 511 l23 53 189 -105 c249 -140 754
-413 1028 -556 406 -213 655 -340 655 -335 0 3 -39 27 -87 53 -470 254 -1743
1007 -1743 1030 0 9 71 145 126 240 63 109 212 335 282 429 59 78 66 91 22 42
-106 -119 -297 -405 -397 -593 -30 -57 -56 -104 -59 -104 -12 0 -497 318 -738
483 -864 593 -1542 1139 -2120 1707 -1522 1496 -2114 2965 -1770 4399 123 512
404 1093 735 1521 92 119 304 337 429 442 587 491 1380 759 2170 735 456 -14
828 -103 1205 -287 764 -371 1214 -1051 1262 -1904 l7 -121 14 120 c19 170 19
552 -1 690 -73 520 -284 952 -637 1305 -510 512 -1241 814 -2130 880 -123 9
-415 11 -550 3z"/>
<path d="M10301 9729 c-617 -44 -1236 -290 -1741 -691 -84 -66 -300 -258 -300
-266 0 -3 8 2 18 10 9 8 51 44 92 79 590 507 1408 805 2085 759 537 -36 946
-224 1365 -627 230 -220 369 -436 426 -663 27 -107 25 -304 -4 -421 -74 -303
-251 -587 -730 -1174 -334 -410 -656 -700 -1997 -1800 -1132 -929 -1747 -1469
-2300 -2020 -263 -261 -428 -438 -606 -646 -154 -180 -162 -193 -44 -70 55 57
105 111 111 120 19 27 409 390 564 526 488 426 1010 825 2075 1585 1395 995
1821 1326 2210 1715 157 157 606 710 832 1026 318 445 457 792 440 1093 -22
376 -283 710 -807 1030 -444 272 -833 400 -1320 436 -150 11 -203 11 -369 -1z"/>
</g>
</svg>
